#!OML:ASF C:\ViconDB\ViconDB\414\Spring2016\041811\Spring2016.ASF
:FULLY-SPECIFIED
:DEGREES
272
root 8.44699 17.9257 -20.7185 -178.16 -5.88217 -176.071
lowerback -2.94741 -1.99366 3.6137
upperback -2.8053 -2.94567 3.10348
thorax -1.24458 -1.6051 1.11406
lowerneck -12.3857 2.49872 -1.26662
upperneck 34.2639 5.55779 6.3212
head 13.3585 4.36532 3.8329
rclavicle -1.54058e-015 -1.90833e-014
rhumerus -81.8785 29.537 -110.047
rradius 93.3383
rwrist 29.3393
rhand -34.1753 1.73137
rfingers 7.12502
rthumb -7.34876 -28.121
lclavicle -1.54058e-015 -1.90833e-014
lhumerus -94.0461 -39.52 132.313
lradius 71.3972
lwrist -18.37
lhand -45.4679 -0.888026
lfingers 7.12502
lthumb -18.2338 28.2774
rfemur 354.146 127.454 -324.752
rtibia 39.0049
rfoot -430.144 -54.3304
rtoes -25.9933
lfemur -10.1865 6.41458 -12.5946
ltibia 62.7594
lfoot 7.28164 -13.9556
ltoes -8.60265
273
root 8.47526 17.9345 -20.92 -178.624 -5.5473 -175.754
lowerback -2.68857 -1.69698 3.34524
upperback -2.62728 -2.51101 2.91821
thorax -1.19976 -1.37185 1.08457
lowerneck -12.2683 2.26459 -1.48006
upperneck 34.3294 5.01066 7.37489
head 13.3443 4.27594 4.21754
rclavicle 3.33958e-014 -4.53229e-014
rhumerus -82.5097 29.7145 -110.69
rradius 92.7121
rwrist 29.266
rhand -34.6367 2.01104
rfingers 7.12502
rthumb -7.79409 -27.8253
lclavicle 3.33958e-014 -4.53229e-014
lhumerus -93.6773 -39.7371 131.87
lradius 71.5706
lwrist -18.6759
lhand -45.3025 -1.05919
lfingers 7.12502
lthumb -18.0748 28.121
rfemur 352.65 125.314 -325.031
rtibia 39.0105
rfoot -432.88 -53.7814
rtoes -24.1295
lfemur -11.8534 6.9212 -11.8181
ltibia 65.305
lfoot 5.30734 -11.7875
ltoes -8.60982
274
root 8.50418 17.9381 -21.1032 -179.041 -5.26922 -175.48
lowerback -2.37387 -1.41408 3.0578
upperback -2.39541 -2.0932 2.74902
thorax -1.13111 -1.14568 1.08122
lowerneck -12.2915 5.96263 -2.53879
upperneck 33.7156 3.08066 9.95242
head 13.0505 1.20783 4.54876
rclavicle 2.25124e-014 -4.17448e-014
rhumerus -83.2854 30.3528 -111.557
rradius 92.3356
rwrist 28.7407
rhand -35.3371 1.33405
rfingers 7.12502
rthumb -8.4701 -28.4761
lclavicle 2.25124e-014 -4.17448e-014
lhumerus -93.2411 -40.2764 131.336
lradius 71.5004
lwrist -20.8937
lhand -45.9666 0.199021
lfingers 7.12502
lthumb -18.7136 29.3189
rfemur 351.108 123.711 -325.548
rtibia 39.0244
rfoot -434.832 -53.1775
rtoes -23.2378
lfemur -13.6993 7.26026 -11.1586
ltibia 67.5547
lfoot 3.49771 -9.63257
ltoes -8.62835
275
root 8.53312 17.9422 -21.2866 -179.368 -5.0645 -175.135
lowerback -2.16309 -1.11013 2.86562
upperback -2.1971 -1.65817 2.55978
thorax -1.04395 -0.914667 1.00086
lowerneck -12.2621 5.80237 -2.57907
upperneck 33.6127 2.52723 10.7848
head 13.0321 1.05156 4.80616
rclavicle 5.36719e-015 -4.19436e-014
rhumerus -83.9917 31.0146 -112.548
rradius 91.8454
rwrist 27.8476
rhand -36.1776 0.987485
rfingers 7.12502
rthumb -9.2812 -28.7882
lclavicle 5.36719e-015 -4.19436e-014
lhumerus -92.6284 -40.7055 130.672
lradius 71.4731
lwrist -22.8164
lhand -46.2548 1.03564
lfingers 7.12502
lthumb -18.9907 30.1285
rfemur 349.646 122.077 -325.95
rtibia 39.1187
rfoot -436.737 -52.4495
rtoes -22.5517
lfemur -15.5891 7.52144 -10.4209
ltibia 69.4422
lfoot 1.84516 -7.86721
ltoes -7.88333
276
root 8.57105 17.9417 -21.4668 -179.668 -4.83532 -174.832
lowerback -1.94029 -0.873188 2.40631
upperback -2.00942 -1.31185 2.44796
thorax -0.967058 -0.725896 1.148
lowerneck -12.3009 5.6731 -2.82908
upperneck 33.5418 2.00083 11.8005
head 13.0361 0.897481 5.18335
rclavicle 7.37988e-015 -3.27995e-014
rhumerus -84.5286 31.4731 -113.369
rradius 91.288
rwrist 27.4381
rhand -36.8666 0.516722
rfingers 7.12502
rthumb -9.9459 -29.2283
lclavicle 7.37988e-015 -3.27995e-014
lhumerus -91.9196 -41.0044 129.87
lradius 71.7864
lwrist -23.2326
lhand -46.0894 0.622035
lfingers 7.12502
lthumb -18.8317 29.7305
rfemur 348.073 120.733 -326.529
rtibia 39.2378
rfoot -438.293 -51.7659
rtoes -21.9782
lfemur -17.5224 7.56094 -9.76075
ltibia 71.021
lfoot 0.318112 -6.12252
ltoes -8.30557
277
root 8.60011 17.9288 -21.6458 -179.951 -4.58311 -174.758
lowerback -1.73713 -0.617981 1.88633
upperback -1.82146 -0.937091 2.18731
thorax -0.884927 -0.521219 1.17585
lowerneck -12.3603 5.56993 -2.90282
upperneck 33.4478 1.47175 12.7837
head 13.0516 0.757483 5.51872
rclavicle -1.56939e-014 -6.17475e-015
rhumerus -85.0775 31.8541 -114.283
rradius 90.7655
rwrist 26.8637
rhand -37.4135 0.193714
rfingers 7.12502
rthumb -10.4736 -29.5254
lclavicle -1.56939e-014 -6.17475e-015
lhumerus -91.451 -41.3753 129.131
lradius 72.5083
lwrist -22.4014
lhand -45.565 -0.953317
lfingers 7.12502
lthumb -18.3273 28.2033
rfemur 346.371 118.833 -327.442
rtibia 39.4261
rfoot -440.587 -51.3564
rtoes -20.4335
lfemur -19.3848 7.56084 -9.46217
ltibia 72.2693
lfoot -1.25738 -4.52879
ltoes -8.97165
